<?xml version="1.0" encoding="UTF-8" standalone="no"?>
<!-- Generator: Adobe Illustrator 23.1.1, SVG Export Plug-In . SVG Version: 6.00 Build 0)  -->

<svg
   xmlns:dc="http://purl.org/dc/elements/1.1/"
   xmlns:cc="http://creativecommons.org/ns#"
   xmlns:rdf="http://www.w3.org/1999/02/22-rdf-syntax-ns#"
   xmlns:svg="http://www.w3.org/2000/svg"
   xmlns="http://www.w3.org/2000/svg"
   xmlns:sodipodi="http://sodipodi.sourceforge.net/DTD/sodipodi-0.dtd"
   xmlns:inkscape="http://www.inkscape.org/namespaces/inkscape"
   version="1.1"
   id="Layer_1"
   x="0px"
   y="0px"
   viewBox="0 0 404.89001 104.99999"
   xml:space="preserve"
   sodipodi:docname="logo.svg"
   width="404.89001"
   height="105"
   inkscape:version="0.92.4 (f8dce91, 2019-08-02)"><metadata
   id="metadata51"><rdf:RDF><cc:Work
       rdf:about=""><dc:format>image/svg+xml</dc:format><dc:type
         rdf:resource="http://purl.org/dc/dcmitype/StillImage" /><dc:title></dc:title></cc:Work></rdf:RDF></metadata><defs
   id="defs49" /><sodipodi:namedview
   pagecolor="#ffffff"
   bordercolor="#666666"
   borderopacity="1"
   objecttolerance="10"
   gridtolerance="10"
   guidetolerance="10"
   inkscape:pageopacity="0"
   inkscape:pageshadow="2"
   inkscape:window-width="1331"
   inkscape:window-height="713"
   id="namedview47"
   showgrid="false"
   inkscape:zoom="0.56066789"
   inkscape:cx="367.21624"
   inkscape:cy="-77.261685"
   inkscape:window-x="35"
   inkscape:window-y="27"
   inkscape:window-maximized="1"
   inkscape:current-layer="Layer_1" />
<style
   type="text/css"
   id="style2">
	.st0{fill:#F20587;}
	.st1{fill:#310273;}
</style>


<g
   transform="matrix(1.3839868,0,0,1.3839868,-379.40936,-359.48149)"
   id="g34"><g
     id="g18"><path
       inkscape:connector-curvature="0"
       class="st0"
       d="m 393.55,271.59 c 0,0.93 -0.13,1.75 -0.4,2.46 -0.26,0.7 -0.63,1.32 -1.09,1.85 -0.46,0.53 -1,0.97 -1.63,1.33 -0.63,0.36 -1.31,0.66 -2.04,0.9 v 0.16 c 0.95,0.16 1.81,0.44 2.6,0.83 0.78,0.39 1.46,0.9 2.02,1.53 0.56,0.63 1,1.37 1.31,2.23 0.31,0.86 0.47,1.84 0.47,2.93 0,2.68 -0.88,4.68 -2.64,6.02 -1.76,1.33 -4.44,2 -8.04,2 h -12.38 v -1.75 h 0.53 c 0.47,0 0.92,-0.03 1.33,-0.1 0.41,-0.07 0.77,-0.21 1.08,-0.42 0.31,-0.21 0.55,-0.51 0.73,-0.9 0.18,-0.39 0.26,-0.91 0.26,-1.56 v -20.37 c 0,-0.61 -0.09,-1.1 -0.27,-1.47 -0.18,-0.37 -0.43,-0.66 -0.74,-0.86 -0.31,-0.2 -0.67,-0.33 -1.09,-0.4 -0.41,-0.06 -0.85,-0.09 -1.31,-0.09 h -0.53 v -1.75 h 11.14 c 3.6,0 6.28,0.6 8.04,1.8 1.77,1.2 2.65,3.08 2.65,5.63 z m -13.68,5.66 h 2.88 c 1.22,0 2.23,-0.11 3.04,-0.32 0.81,-0.22 1.46,-0.55 1.95,-1 0.49,-0.45 0.84,-1.04 1.05,-1.76 0.21,-0.72 0.31,-1.58 0.31,-2.58 0,-1.01 -0.12,-1.86 -0.35,-2.55 -0.23,-0.69 -0.6,-1.23 -1.12,-1.65 -0.52,-0.42 -1.18,-0.72 -2,-0.89 -0.82,-0.18 -1.82,-0.26 -2.99,-0.26 h -2.78 v 11.01 z m 0,14.51 h 4.04 c 1.18,0 2.17,-0.11 2.98,-0.32 0.81,-0.22 1.47,-0.56 1.99,-1.04 0.51,-0.48 0.89,-1.11 1.12,-1.88 0.23,-0.77 0.35,-1.71 0.35,-2.82 0,-1.08 -0.1,-2.02 -0.3,-2.82 -0.2,-0.8 -0.55,-1.46 -1.05,-1.99 -0.49,-0.53 -1.15,-0.92 -1.96,-1.18 -0.81,-0.26 -1.83,-0.39 -3.04,-0.39 h -4.12 v 12.44 z"
       id="path4"
       style="fill:#f20587" /><path
       inkscape:connector-curvature="0"
       class="st0"
       d="m 425.09,278.96 c 0,2.29 -0.28,4.37 -0.85,6.25 -0.57,1.88 -1.41,3.49 -2.52,4.83 -1.11,1.34 -2.48,2.37 -4.1,3.1 -1.62,0.73 -3.48,1.1 -5.58,1.1 -2.21,0 -4.13,-0.37 -5.76,-1.1 -1.64,-0.73 -3,-1.77 -4.08,-3.1 -1.08,-1.34 -1.89,-2.95 -2.44,-4.84 -0.54,-1.89 -0.81,-3.98 -0.81,-6.28 0,-2.3 0.27,-4.39 0.81,-6.26 0.54,-1.87 1.35,-3.47 2.44,-4.8 1.08,-1.33 2.45,-2.35 4.1,-3.07 1.65,-0.72 3.58,-1.08 5.78,-1.08 2.1,0 3.95,0.36 5.56,1.08 1.61,0.72 2.97,1.75 4.08,3.08 1.11,1.33 1.95,2.94 2.52,4.81 0.56,1.87 0.85,3.97 0.85,6.28 z m -21.53,0 c 0,2.06 0.15,3.89 0.46,5.51 0.3,1.62 0.79,2.98 1.47,4.1 0.68,1.12 1.55,1.97 2.63,2.56 1.08,0.59 2.38,0.88 3.93,0.88 1.54,0 2.85,-0.29 3.93,-0.88 1.08,-0.59 1.95,-1.44 2.62,-2.56 0.67,-1.12 1.15,-2.48 1.45,-4.1 0.3,-1.62 0.45,-3.45 0.45,-5.51 0,-2.06 -0.15,-3.89 -0.45,-5.51 -0.3,-1.62 -0.78,-2.98 -1.45,-4.09 -0.67,-1.11 -1.54,-1.96 -2.6,-2.54 -1.06,-0.58 -2.36,-0.87 -3.91,-0.87 -1.54,0 -2.85,0.29 -3.94,0.87 -1.08,0.58 -1.97,1.43 -2.65,2.54 -0.68,1.11 -1.18,2.47 -1.48,4.09 -0.31,1.62 -0.46,3.45 -0.46,5.51 z"
       id="path6"
       style="fill:#f20587" /><path
       inkscape:connector-curvature="0"
       class="st0"
       d="m 455.55,278.96 c 0,2.29 -0.28,4.37 -0.85,6.25 -0.57,1.88 -1.41,3.49 -2.52,4.83 -1.11,1.34 -2.48,2.37 -4.1,3.1 -1.62,0.73 -3.48,1.1 -5.58,1.1 -2.21,0 -4.13,-0.37 -5.76,-1.1 -1.64,-0.73 -3,-1.77 -4.08,-3.1 -1.08,-1.34 -1.89,-2.95 -2.44,-4.84 -0.54,-1.89 -0.81,-3.98 -0.81,-6.28 0,-2.3 0.27,-4.39 0.81,-6.26 0.54,-1.87 1.35,-3.47 2.44,-4.8 1.08,-1.33 2.45,-2.35 4.1,-3.07 1.65,-0.72 3.58,-1.08 5.78,-1.08 2.1,0 3.95,0.36 5.56,1.08 1.61,0.72 2.97,1.75 4.08,3.08 1.11,1.33 1.95,2.94 2.52,4.81 0.57,1.87 0.85,3.97 0.85,6.28 z m -21.53,0 c 0,2.06 0.15,3.89 0.46,5.51 0.3,1.62 0.79,2.98 1.47,4.1 0.68,1.12 1.55,1.97 2.63,2.56 1.08,0.59 2.38,0.88 3.93,0.88 1.54,0 2.85,-0.29 3.93,-0.88 1.08,-0.59 1.95,-1.44 2.62,-2.56 0.67,-1.12 1.15,-2.48 1.45,-4.1 0.3,-1.62 0.45,-3.45 0.45,-5.51 0,-2.06 -0.15,-3.89 -0.45,-5.51 -0.3,-1.62 -0.78,-2.98 -1.45,-4.09 -0.67,-1.11 -1.54,-1.96 -2.6,-2.54 -1.06,-0.58 -2.36,-0.87 -3.91,-0.87 -1.54,0 -2.85,0.29 -3.94,0.87 -1.08,0.58 -1.97,1.43 -2.65,2.54 -0.68,1.11 -1.18,2.47 -1.48,4.09 -0.31,1.62 -0.46,3.45 -0.46,5.51 z"
       id="path8"
       style="fill:#f20587" /><path
       inkscape:connector-curvature="0"
       class="st0"
       d="m 474.96,270.76 c 0.45,-0.51 0.82,-0.97 1.12,-1.37 0.3,-0.4 0.53,-0.76 0.7,-1.08 0.17,-0.32 0.29,-0.61 0.37,-0.85 0.07,-0.24 0.11,-0.47 0.11,-0.67 0,-0.35 -0.17,-0.59 -0.51,-0.72 -0.34,-0.13 -0.85,-0.19 -1.54,-0.19 v -1.7 h 9.19 v 1.7 c -0.47,0 -0.93,0.09 -1.37,0.27 -0.44,0.18 -0.88,0.44 -1.32,0.77 -0.44,0.33 -0.89,0.74 -1.36,1.22 -0.47,0.48 -0.97,1.02 -1.51,1.63 l -6.03,6.78 8.77,12.22 c 0.8,1.1 1.56,1.92 2.3,2.49 0.74,0.56 1.49,0.84 2.26,0.84 h 0.08 v 1.75 h -0.45 c -1.39,0 -2.54,-0.05 -3.43,-0.16 -0.89,-0.11 -1.64,-0.3 -2.25,-0.59 -0.61,-0.28 -1.14,-0.67 -1.59,-1.15 -0.45,-0.48 -0.94,-1.09 -1.45,-1.84 l -7.16,-10.27 -3.53,2.86 v 6.41 c 0,0.65 0.09,1.17 0.27,1.56 0.18,0.39 0.43,0.69 0.73,0.9 0.3,0.21 0.67,0.35 1.09,0.42 0.42,0.07 0.86,0.1 1.32,0.1 h 0.55 v 1.75 h -12.09 v -1.75 h 0.53 c 0.46,0 0.9,-0.03 1.31,-0.09 0.41,-0.06 0.77,-0.18 1.09,-0.38 0.31,-0.19 0.56,-0.47 0.74,-0.84 0.18,-0.37 0.27,-0.86 0.27,-1.47 v -20.58 c 0,-0.61 -0.09,-1.1 -0.27,-1.47 -0.18,-0.37 -0.43,-0.66 -0.74,-0.86 -0.31,-0.2 -0.67,-0.33 -1.09,-0.4 -0.41,-0.06 -0.85,-0.09 -1.31,-0.09 h -0.53 v -1.75 h 12.09 v 1.75 h -0.55 c -0.46,0 -0.9,0.03 -1.32,0.1 -0.42,0.07 -0.78,0.21 -1.09,0.42 -0.3,0.21 -0.55,0.51 -0.73,0.9 -0.18,0.39 -0.27,0.91 -0.27,1.56 v 11.73 z"
       id="path10"
       style="fill:#f20587" /><path
       inkscape:connector-curvature="0"
       class="st0"
       d="m 488.8,293.83 v -1.75 h 0.53 c 0.47,0 0.92,-0.03 1.33,-0.1 0.41,-0.07 0.77,-0.21 1.08,-0.42 0.31,-0.21 0.55,-0.51 0.73,-0.9 0.18,-0.39 0.26,-0.91 0.26,-1.56 v -20.21 c 0,-0.65 -0.09,-1.17 -0.26,-1.56 -0.18,-0.39 -0.42,-0.69 -0.73,-0.9 -0.31,-0.21 -0.67,-0.35 -1.08,-0.42 -0.41,-0.07 -0.86,-0.1 -1.33,-0.1 h -0.53 v -1.75 h 12.09 v 1.75 h -0.55 c -0.46,0 -0.9,0.03 -1.32,0.1 -0.42,0.07 -0.78,0.21 -1.09,0.42 -0.3,0.21 -0.55,0.51 -0.73,0.9 -0.18,0.39 -0.27,0.91 -0.27,1.56 v 20.21 c 0,0.65 0.09,1.17 0.27,1.56 0.18,0.39 0.43,0.69 0.73,0.9 0.3,0.21 0.67,0.35 1.09,0.42 0.42,0.07 0.86,0.1 1.32,0.1 h 0.55 v 1.75 z"
       id="path12"
       style="fill:#f20587" /><path
       inkscape:connector-curvature="0"
       class="st0"
       d="m 526.54,293.83 -15.58,-23.94 v 19.22 c 0,0.65 0.09,1.17 0.27,1.56 0.18,0.39 0.43,0.69 0.73,0.9 0.3,0.21 0.67,0.35 1.09,0.42 0.42,0.07 0.86,0.1 1.32,0.1 h 0.55 v 1.75 h -10.43 v -1.75 h 0.53 c 0.47,0 0.92,-0.03 1.33,-0.1 0.41,-0.07 0.77,-0.21 1.08,-0.42 0.31,-0.21 0.55,-0.51 0.73,-0.9 0.18,-0.39 0.26,-0.91 0.26,-1.56 v -20.37 c 0,-0.61 -0.09,-1.1 -0.27,-1.47 -0.18,-0.37 -0.43,-0.66 -0.74,-0.86 -0.31,-0.2 -0.67,-0.33 -1.09,-0.4 -0.41,-0.06 -0.85,-0.09 -1.31,-0.09 h -0.53 v -1.75 h 7.61 l 14.87,22.97 v -18.41 c 0,-0.61 -0.09,-1.1 -0.27,-1.47 -0.18,-0.37 -0.43,-0.66 -0.74,-0.86 -0.31,-0.2 -0.67,-0.33 -1.09,-0.4 -0.41,-0.06 -0.85,-0.09 -1.31,-0.09 H 523 v -1.75 h 10.43 v 1.75 h -0.53 c -0.47,0 -0.92,0.03 -1.33,0.1 -0.41,0.07 -0.77,0.21 -1.09,0.42 -0.31,0.21 -0.55,0.51 -0.73,0.9 -0.18,0.39 -0.26,0.91 -0.26,1.56 v 24.94 z"
       id="path14"
       style="fill:#f20587" /><path
       inkscape:connector-curvature="0"
       class="st0"
       d="m 550.03,294.24 c -2.41,0 -4.51,-0.37 -6.3,-1.1 -1.79,-0.73 -3.28,-1.77 -4.46,-3.1 -1.18,-1.34 -2.07,-2.95 -2.65,-4.83 -0.58,-1.88 -0.87,-3.96 -0.87,-6.25 0,-2.24 0.31,-4.3 0.92,-6.17 0.62,-1.87 1.54,-3.47 2.76,-4.81 1.22,-1.34 2.74,-2.38 4.56,-3.13 1.81,-0.74 3.92,-1.12 6.31,-1.12 1.54,0 2.88,0.12 4.03,0.35 1.14,0.24 2.1,0.57 2.86,0.98 0.76,0.42 1.34,0.91 1.71,1.48 0.38,0.57 0.57,1.18 0.57,1.85 0,0.45 -0.1,0.85 -0.3,1.21 -0.2,0.36 -0.48,0.66 -0.82,0.91 -0.34,0.25 -0.75,0.44 -1.22,0.58 -0.47,0.14 -0.97,0.2 -1.51,0.2 0,-0.65 -0.09,-1.29 -0.28,-1.93 -0.19,-0.64 -0.5,-1.21 -0.93,-1.71 -0.43,-0.51 -1,-0.92 -1.7,-1.24 -0.7,-0.32 -1.56,-0.48 -2.58,-0.48 -1.76,0 -3.26,0.29 -4.5,0.86 -1.24,0.58 -2.25,1.41 -3.03,2.52 -0.78,1.1 -1.35,2.46 -1.7,4.08 -0.35,1.62 -0.53,3.47 -0.53,5.55 0,2.07 0.18,3.91 0.55,5.52 0.36,1.61 0.96,2.96 1.78,4.06 0.83,1.1 1.89,1.93 3.21,2.5 1.31,0.57 2.91,0.85 4.81,0.85 0.8,0 1.57,-0.04 2.32,-0.12 0.75,-0.08 1.42,-0.21 2,-0.39 v -6.7 c 0,-0.61 -0.09,-1.1 -0.27,-1.47 -0.18,-0.37 -0.43,-0.66 -0.74,-0.85 -0.31,-0.2 -0.67,-0.33 -1.09,-0.4 -0.41,-0.07 -0.85,-0.1 -1.31,-0.1 h -0.16 v -1.75 h 10.79 v 1.75 h -0.16 c -0.39,0 -0.76,0.03 -1.12,0.1 -0.35,0.07 -0.66,0.21 -0.91,0.42 -0.26,0.21 -0.46,0.51 -0.61,0.91 -0.15,0.4 -0.22,0.92 -0.22,1.57 v 7.47 c -1.39,0.65 -2.83,1.13 -4.3,1.44 -1.49,0.33 -3.12,0.49 -4.91,0.49 z"
       id="path16"
       style="fill:#f20587" /></g><g
     id="g32"><path
       inkscape:connector-curvature="0"
       class="st1"
       d="m 397.87,307.48 c 0,1 -0.14,1.87 -0.41,2.62 -0.27,0.74 -0.66,1.38 -1.16,1.92 -0.5,0.54 -1.1,1 -1.8,1.38 -0.7,0.38 -1.47,0.71 -2.33,0.97 v 0.22 c 1.04,0.27 2,0.63 2.86,1.09 0.86,0.46 1.6,1.03 2.23,1.7 0.63,0.67 1.11,1.45 1.46,2.33 0.35,0.88 0.52,1.88 0.52,2.98 0,2.97 -1.08,5.19 -3.24,6.65 -2.16,1.46 -5.39,2.2 -9.69,2.2 h -14.57 v -2.41 h 1.85 c 0.34,0 0.65,-0.03 0.94,-0.1 0.29,-0.07 0.53,-0.2 0.74,-0.41 0.21,-0.21 0.37,-0.5 0.5,-0.88 0.12,-0.38 0.19,-0.9 0.19,-1.54 v -21.65 c 0,-0.6 -0.06,-1.09 -0.19,-1.47 -0.12,-0.37 -0.29,-0.67 -0.51,-0.87 -0.21,-0.21 -0.46,-0.35 -0.75,-0.43 -0.29,-0.08 -0.59,-0.12 -0.92,-0.12 h -1.85 v -2.38 h 13.2 c 4.3,0 7.53,0.66 9.69,1.99 2.16,1.31 3.24,3.39 3.24,6.21 z m -14.79,5.81 h 1.72 c 1.06,0 1.94,-0.11 2.64,-0.33 0.7,-0.22 1.26,-0.56 1.68,-1.03 0.42,-0.46 0.72,-1.06 0.89,-1.8 0.18,-0.74 0.27,-1.62 0.27,-2.65 0,-1.03 -0.1,-1.89 -0.3,-2.58 -0.2,-0.69 -0.52,-1.25 -0.96,-1.68 -0.44,-0.43 -1.02,-0.73 -1.72,-0.92 -0.71,-0.18 -1.57,-0.28 -2.58,-0.28 h -1.63 v 11.27 z m 0,15.49 h 3 c 1,0 1.85,-0.11 2.56,-0.33 0.71,-0.22 1.28,-0.58 1.72,-1.07 0.44,-0.49 0.76,-1.14 0.96,-1.93 0.2,-0.8 0.3,-1.77 0.3,-2.91 0,-1.1 -0.09,-2.06 -0.26,-2.88 -0.18,-0.82 -0.48,-1.49 -0.91,-2.02 -0.43,-0.53 -0.99,-0.93 -1.68,-1.19 -0.69,-0.27 -1.56,-0.4 -2.61,-0.4 h -3.09 v 12.73 z"
       id="path20"
       style="fill:#310273" /><path
       inkscape:connector-curvature="0"
       class="st1"
       d="m 410.82,320.93 -1.3,3.89 c -0.12,0.37 -0.24,0.8 -0.36,1.29 -0.13,0.49 -0.19,0.92 -0.19,1.29 0,0.29 0.06,0.55 0.18,0.77 0.12,0.22 0.27,0.4 0.46,0.54 0.19,0.14 0.41,0.25 0.65,0.32 0.24,0.07 0.5,0.11 0.76,0.11 h 1.9 v 2.41 h -11.76 v -2.41 h 0.55 c 0.4,0 0.76,-0.04 1.09,-0.13 0.33,-0.09 0.64,-0.25 0.93,-0.5 0.29,-0.24 0.56,-0.58 0.82,-1 0.26,-0.43 0.52,-0.98 0.78,-1.65 l 9.8,-26.58 h 6.2 l 9.45,26.62 c 0.22,0.63 0.45,1.16 0.7,1.58 0.25,0.42 0.51,0.75 0.8,0.99 0.29,0.24 0.59,0.42 0.92,0.52 0.32,0.1 0.66,0.16 1.01,0.16 h 0.82 v 2.41 h -14.92 v -2.41 h 1.77 c 0.22,0 0.45,-0.03 0.68,-0.1 0.24,-0.07 0.45,-0.17 0.63,-0.31 0.18,-0.14 0.33,-0.32 0.45,-0.54 0.12,-0.22 0.18,-0.49 0.18,-0.8 0,-0.37 -0.04,-0.72 -0.13,-1.06 -0.09,-0.34 -0.18,-0.63 -0.26,-0.88 l -1.59,-4.53 z m 7.71,-10.18 c -0.16,-0.52 -0.33,-1.06 -0.5,-1.62 -0.17,-0.57 -0.34,-1.14 -0.51,-1.73 -0.17,-0.59 -0.33,-1.17 -0.49,-1.75 -0.15,-0.58 -0.29,-1.14 -0.41,-1.67 -0.13,0.46 -0.29,0.96 -0.46,1.5 -0.18,0.55 -0.36,1.1 -0.56,1.68 -0.2,0.57 -0.4,1.15 -0.6,1.72 -0.2,0.57 -0.39,1.13 -0.56,1.66 l -2.67,7.64 h 9.14 z"
       id="path22"
       style="fill:#310273" /><path
       inkscape:connector-curvature="0"
       class="st1"
       d="m 437.76,329.14 h 1.9 c 0.31,0 0.6,-0.03 0.88,-0.09 0.28,-0.06 0.53,-0.18 0.74,-0.36 0.21,-0.18 0.38,-0.46 0.51,-0.82 0.12,-0.36 0.19,-0.83 0.19,-1.42 v -22.03 c 0,-0.6 -0.06,-1.08 -0.19,-1.45 -0.12,-0.36 -0.29,-0.64 -0.51,-0.83 -0.21,-0.19 -0.46,-0.32 -0.74,-0.39 -0.28,-0.07 -0.57,-0.1 -0.88,-0.1 h -1.9 v -2.38 h 14.57 c 4.27,0 7.4,0.71 9.39,2.14 1.99,1.43 2.99,3.5 2.99,6.22 0,1.19 -0.18,2.25 -0.53,3.18 -0.35,0.93 -0.82,1.74 -1.4,2.43 -0.58,0.69 -1.24,1.28 -1.98,1.75 -0.74,0.48 -1.49,0.87 -2.25,1.18 l 5.39,9.27 c 0.38,0.65 0.75,1.2 1.11,1.67 0.36,0.46 0.72,0.85 1.08,1.15 0.36,0.3 0.73,0.52 1.11,0.66 0.38,0.14 0.79,0.21 1.21,0.21 h 0.18 v 2.41 h -1.48 c -1.35,0 -2.53,-0.05 -3.54,-0.15 -1.01,-0.1 -1.89,-0.3 -2.65,-0.61 -0.76,-0.3 -1.41,-0.72 -1.96,-1.25 -0.55,-0.53 -1.06,-1.21 -1.53,-2.05 l -5.36,-9.96 h -3 v 8.92 c 0,0.59 0.06,1.06 0.19,1.42 0.12,0.36 0.29,0.63 0.51,0.82 0.21,0.18 0.46,0.3 0.74,0.36 0.28,0.06 0.57,0.09 0.88,0.09 h 1.94 v 2.41 H 437.76 Z M 449.1,314.9 h 2.54 c 1.04,0 1.92,-0.14 2.62,-0.42 0.7,-0.28 1.26,-0.7 1.68,-1.25 0.42,-0.55 0.72,-1.24 0.9,-2.08 0.18,-0.83 0.28,-1.8 0.28,-2.9 0,-1.15 -0.1,-2.12 -0.31,-2.91 -0.21,-0.79 -0.53,-1.45 -0.97,-1.95 -0.44,-0.51 -1.01,-0.88 -1.72,-1.1 -0.71,-0.23 -1.56,-0.34 -2.56,-0.34 h -2.45 v 12.95 z"
       id="path24"
       style="fill:#310273" /><path
       inkscape:connector-curvature="0"
       class="st1"
       d="m 497.43,307.48 c 0,1 -0.14,1.87 -0.41,2.62 -0.27,0.74 -0.66,1.38 -1.16,1.92 -0.5,0.54 -1.1,1 -1.8,1.38 -0.7,0.38 -1.47,0.71 -2.33,0.97 v 0.22 c 1.04,0.27 2,0.63 2.86,1.09 0.86,0.46 1.6,1.03 2.23,1.7 0.63,0.67 1.11,1.45 1.46,2.33 0.35,0.88 0.52,1.88 0.52,2.98 0,2.97 -1.08,5.19 -3.24,6.65 -2.16,1.46 -5.39,2.2 -9.69,2.2 H 471.3 v -2.41 h 1.85 c 0.34,0 0.65,-0.03 0.94,-0.1 0.29,-0.07 0.53,-0.2 0.74,-0.41 0.21,-0.21 0.37,-0.5 0.5,-0.88 0.12,-0.38 0.19,-0.9 0.19,-1.54 v -21.65 c 0,-0.6 -0.06,-1.09 -0.19,-1.47 -0.12,-0.37 -0.29,-0.67 -0.51,-0.87 -0.21,-0.21 -0.46,-0.35 -0.75,-0.43 -0.29,-0.08 -0.59,-0.12 -0.92,-0.12 h -1.85 v -2.38 h 13.2 c 4.3,0 7.53,0.66 9.69,1.99 2.15,1.31 3.24,3.39 3.24,6.21 z m -14.79,5.81 h 1.72 c 1.06,0 1.94,-0.11 2.64,-0.33 0.7,-0.22 1.26,-0.56 1.68,-1.03 0.42,-0.46 0.72,-1.06 0.89,-1.8 0.18,-0.74 0.27,-1.62 0.27,-2.65 0,-1.03 -0.1,-1.89 -0.3,-2.58 -0.2,-0.69 -0.52,-1.25 -0.96,-1.68 -0.44,-0.43 -1.02,-0.73 -1.72,-0.92 -0.71,-0.18 -1.57,-0.28 -2.58,-0.28 h -1.63 v 11.27 z m 0,15.49 h 3 c 1,0 1.85,-0.11 2.56,-0.33 0.71,-0.22 1.28,-0.58 1.72,-1.07 0.44,-0.49 0.76,-1.14 0.96,-1.93 0.2,-0.8 0.3,-1.77 0.3,-2.91 0,-1.1 -0.09,-2.06 -0.26,-2.88 -0.18,-0.82 -0.48,-1.49 -0.91,-2.02 -0.43,-0.53 -0.99,-0.93 -1.68,-1.19 -0.69,-0.27 -1.56,-0.4 -2.61,-0.4 h -3.09 v 12.73 z"
       id="path26"
       style="fill:#310273" /><path
       inkscape:connector-curvature="0"
       class="st1"
       d="m 512.61,328.78 h 9.05 c 0.46,0 0.85,-0.08 1.17,-0.25 0.32,-0.17 0.6,-0.41 0.84,-0.72 0.24,-0.31 0.42,-0.67 0.56,-1.09 0.14,-0.42 0.25,-0.88 0.32,-1.38 l 0.35,-2.12 h 3.13 l -0.33,8.32 h -26.49 v -2.41 h 1.9 c 0.32,0 0.63,-0.03 0.9,-0.09 0.28,-0.06 0.53,-0.18 0.74,-0.36 0.21,-0.18 0.38,-0.46 0.5,-0.82 0.12,-0.36 0.18,-0.83 0.18,-1.42 v -21.85 c 0,-0.65 -0.06,-1.16 -0.18,-1.55 -0.12,-0.38 -0.28,-0.68 -0.49,-0.88 -0.21,-0.21 -0.45,-0.34 -0.73,-0.41 -0.28,-0.07 -0.59,-0.1 -0.93,-0.1 h -1.9 v -2.38 h 25.1 l 0.18,8.32 h -3.16 l -0.22,-2.14 c -0.12,-1.1 -0.4,-1.95 -0.84,-2.54 -0.44,-0.59 -1.13,-0.88 -2.05,-0.88 h -7.62 v 11.3 h 10.73 v 2.72 h -10.73 v 12.73 z"
       id="path28"
       style="fill:#310273" /><path
       inkscape:connector-curvature="0"
       class="st1"
       d="m 531.37,329.14 h 1.9 c 0.31,0 0.6,-0.03 0.88,-0.09 0.28,-0.06 0.53,-0.18 0.74,-0.36 0.21,-0.18 0.38,-0.46 0.51,-0.82 0.12,-0.36 0.19,-0.83 0.19,-1.42 v -22.03 c 0,-0.6 -0.06,-1.08 -0.19,-1.45 -0.12,-0.36 -0.29,-0.64 -0.51,-0.83 -0.21,-0.19 -0.46,-0.32 -0.74,-0.39 -0.28,-0.07 -0.57,-0.1 -0.88,-0.1 h -1.9 v -2.38 h 14.57 c 4.27,0 7.4,0.71 9.39,2.14 1.99,1.43 2.99,3.5 2.99,6.22 0,1.19 -0.18,2.25 -0.53,3.18 -0.35,0.93 -0.82,1.74 -1.4,2.43 -0.58,0.69 -1.24,1.28 -1.98,1.75 -0.74,0.48 -1.49,0.87 -2.25,1.18 l 5.39,9.27 c 0.38,0.65 0.75,1.2 1.11,1.67 0.36,0.46 0.72,0.85 1.08,1.15 0.36,0.3 0.73,0.52 1.11,0.66 0.38,0.14 0.79,0.21 1.21,0.21 h 0.18 v 2.41 h -1.48 c -1.35,0 -2.53,-0.05 -3.54,-0.15 -1.01,-0.1 -1.89,-0.3 -2.65,-0.61 -0.76,-0.3 -1.41,-0.72 -1.96,-1.25 -0.55,-0.53 -1.06,-1.21 -1.53,-2.05 l -5.36,-9.96 h -3 v 8.92 c 0,0.59 0.06,1.06 0.19,1.42 0.12,0.36 0.29,0.63 0.51,0.82 0.21,0.18 0.46,0.3 0.74,0.36 0.28,0.06 0.57,0.09 0.88,0.09 h 1.94 v 2.41 h -15.61 z m 11.35,-14.24 h 2.54 c 1.04,0 1.92,-0.14 2.62,-0.42 0.7,-0.28 1.26,-0.7 1.68,-1.25 0.42,-0.55 0.72,-1.24 0.9,-2.08 0.18,-0.83 0.28,-1.8 0.28,-2.9 0,-1.15 -0.1,-2.12 -0.31,-2.91 -0.21,-0.79 -0.53,-1.45 -0.97,-1.95 -0.44,-0.51 -1.01,-0.88 -1.72,-1.1 -0.71,-0.23 -1.56,-0.34 -2.56,-0.34 h -2.45 v 12.95 z"
       id="path30"
       style="fill:#310273" /></g></g><g
   transform="matrix(1.3839868,0,0,1.3839868,-379.40936,-359.48149)"
   id="g44"><g
     id="g40"><path
       inkscape:connector-curvature="0"
       class="st1"
       d="m 325.23,290.11 c 0.91,-0.98 1.64,-1.71 2.29,-2.48 6.91,-8.18 3.02,-22 -7.53,-23.37 -4.14,-0.54 -14.47,-0.4 -22.89,-0.4 v 3.84 h 4.47 c 0,0 0.06,15.34 -0.05,18.88 -0.08,2.65 0,2.24 0,4.44 1.32,-0.3 2.23,-0.44 4.04,-0.51 5.15,-0.21 11.18,0.76 14.32,2.81 6.53,4.25 9.55,9.76 10.32,16.28 l 8.87,-8.24 c -2.91,-5.27 -7.57,-8.93 -13.84,-11.25 z m -5.96,-8.18 c -0.56,4.8 -1.98,5.95 -7.87,5.95 v -20.23 c 5.69,-0.21 7.24,1.05 7.83,5.68 0.36,2.83 0.37,5.76 0.04,8.6 z"
       id="path36"
       style="fill:#310273" /><path
       inkscape:connector-curvature="0"
       class="st1"
       d="m 288.17,302.51 7.26,6.7 c 1.07,-3.13 2.72,-6.13 4.95,-8.95 5.93,-7.48 13.22,-3.46 12.32,0.47 -0.38,1.68 -1.9,3.48 -2.24,5.16 -0.29,0.85 -0.45,1.76 -0.45,2.71 0,4.67 3.78,8.45 8.45,8.45 0.48,0 0.95,-0.05 1.41,-0.13 1.61,-0.12 3.15,-0.73 4.49,-2.03 0.96,-0.92 1.6,-1.96 1.94,-3.06 0.04,-0.13 0.07,-0.25 0.1,-0.38 0.32,-0.89 0.52,-1.85 0.5,-2.85 -0.16,-12.07 -23.85,-23.94 -38.73,-6.09 z"
       id="path38"
       style="fill:#310273" /></g><path
     inkscape:connector-curvature="0"
     class="st0"
     d="m 313.61,321.38 -34.69,-30.7 c 0.43,2.79 1.35,5.48 2.74,7.93 l 1.3,2.3 30.67,30.67 0.01,-0.04 30.65,-30.65 1.3,-2.3 c 1.39,-2.46 2.32,-5.14 2.74,-7.93 z"
     id="path42"
     style="fill:#f20587" /></g></svg>