<?xml version="1.0" standalone="no"?>
<!DOCTYPE svg PUBLIC "-//W3C//DTD SVG 20010904//EN"
 "http://www.w3.org/TR/2001/REC-SVG-20010904/DTD/svg10.dtd">
<svg version="1.0" xmlns="http://www.w3.org/2000/svg"
 width="700.000000pt" height="700.000000pt" viewBox="0 0 700.000000 700.000000"
 preserveAspectRatio="xMidYMid meet">
<metadata>
Created by potrace 1.11, written by Peter Selinger 2001-2013
</metadata>
<g transform="translate(0.000000,700.000000) scale(0.100000,-0.100000)"
fill="#000000" stroke="none">
<path d="M1948 6882 c-51 -2 -67 -7 -70 -19 -2 -9 -1 -93 2 -187 l5 -171 210
-1 c116 -1 215 -2 221 -3 9 -1 10 -252 3 -2061 0 -74 0 -155 0 -179 l1 -44 38
7 c20 3 48 8 62 11 14 2 37 6 53 9 181 32 656 27 877 -9 14 -2 45 -7 69 -10
65 -8 102 -14 146 -24 334 -79 460 -128 645 -252 461 -306 773 -727 904 -1219
l24 -89 -71 -63 c-40 -34 -79 -69 -88 -78 -9 -8 -29 -26 -45 -39 -16 -13 -41
-35 -55 -48 l-27 -24 0 83 c-2 244 -98 492 -281 723 -42 52 -196 209 -240 243
-19 15 -48 39 -65 53 -49 41 -203 142 -296 194 -222 122 -507 221 -755 261
-16 3 -41 7 -55 10 -102 19 -448 26 -580 12 -189 -21 -370 -64 -565 -135 -262
-96 -554 -281 -789 -498 -27 -25 -51 -45 -54 -45 -4 0 -93 74 -138 115 -6 5
-40 35 -74 65 -35 30 -71 62 -80 70 -10 8 -44 38 -75 65 -32 28 -63 55 -69 60
-6 6 -42 37 -81 70 -74 64 -131 113 -149 130 -6 6 -99 86 -206 179 -107 93
-201 176 -207 184 -23 29 -26 3 -9 -80 59 -277 140 -478 319 -789 l67 -116
461 -454 c253 -250 527 -519 609 -599 81 -80 364 -359 629 -620 265 -261 573
-564 684 -673 111 -109 303 -298 427 -421 124 -122 231 -226 238 -230 9 -5 82
61 230 207 119 118 283 280 363 358 80 79 377 371 659 649 281 278 583 575
670 660 314 308 1103 1086 1127 1110 27 28 149 241 215 375 78 157 158 390
187 545 6 30 12 65 15 78 5 23 5 23 -27 -4 -18 -14 -61 -52 -97 -84 -36 -31
-155 -135 -265 -231 -110 -95 -205 -178 -211 -184 -6 -5 -34 -30 -63 -55 -29
-25 -65 -56 -80 -70 -16 -14 -50 -44 -77 -67 -27 -23 -60 -51 -74 -63 -64 -56
-122 -105 -124 -105 -2 0 -37 45 -78 100 -144 190 -353 384 -563 520 -122 80
-311 185 -331 185 -8 0 -14 3 -14 8 0 4 -21 16 -48 26 -88 35 -237 98 -241
102 -2 2 9 17 25 32 89 87 217 230 265 297 188 260 281 560 274 890 -12 597
-349 1093 -860 1263 -134 44 -221 57 -525 77 -199 13 -1710 26 -1922 17z
m1717 -387 c115 -20 238 -83 288 -148 42 -56 88 -156 103 -228 24 -114 30
-155 38 -229 36 -352 18 -772 -45 -1000 -25 -92 -77 -187 -124 -229 -101 -89
-277 -133 -540 -135 l-79 -1 -1 985 c-1 542 1 989 3 994 5 9 291 2 357 -9z
m-555 -2800 c165 -50 296 -173 325 -305 20 -91 -3 -178 -90 -340 -84 -155
-113 -223 -143 -329 -22 -81 -26 -117 -27 -226 0 -71 3 -147 7 -168 33 -164
138 -343 267 -457 135 -118 335 -201 501 -209 30 -1 55 -3 56 -4 2 -2 -184
-166 -274 -242 -20 -16 -73 -63 -118 -102 -45 -40 -84 -73 -88 -73 -4 0 -53
40 -109 89 -139 122 -439 383 -512 446 -33 29 -157 137 -275 240 -118 103
-234 203 -258 223 -23 21 -57 51 -75 67 -18 17 -46 41 -63 55 -34 29 -177 153
-184 160 -3 3 -39 34 -80 70 -41 36 -90 78 -107 94 l-33 29 58 111 c119 225
294 469 441 613 52 51 97 93 101 93 4 0 18 9 31 21 64 56 233 133 339 154 81
17 236 12 310 -10z"/>
</g>
</svg>
