<svg width="136" height="48" viewBox="0 0 136 48" fill="none" xmlns="http://www.w3.org/2000/svg">
<path d="M68.2412 19.8584C68.2412 20.9671 67.9661 21.8643 67.416 22.5498C66.8743 23.2269 66.1507 23.722 65.2451 24.0352C64.348 24.3398 63.3662 24.4922 62.2998 24.4922H55.749V23.4893L56.9932 23.4004C57.3148 23.375 57.4756 23.2015 57.4756 22.8799V10.4004C57.4756 10.0872 57.3148 9.91797 56.9932 9.89258L55.749 9.80371V8.78809H62.0205C65.5244 8.78809 67.2764 10.0449 67.2764 12.5586C67.2764 14.3952 66.1549 15.597 63.9121 16.1641C65.1055 16.1641 66.0872 16.4349 66.8574 16.9766C67.7799 17.6198 68.2412 18.5804 68.2412 19.8584ZM64.7627 12.7236C64.7627 10.8193 63.5609 9.86719 61.1572 9.86719C60.9626 9.86719 60.7002 9.87988 60.3701 9.90527C60.2093 9.91374 60.0824 9.9222 59.9893 9.93066C59.8962 9.93066 59.8411 9.93066 59.8242 9.93066V15.8594C60.0189 15.8678 60.1882 15.8721 60.332 15.8721C60.4759 15.8721 60.5859 15.8721 60.6621 15.8721C62.1432 15.8721 63.2054 15.6012 63.8486 15.0596C64.458 14.5518 64.7627 13.7731 64.7627 12.7236ZM65.6895 20.0488C65.6895 17.9922 64.4326 16.9639 61.9189 16.9639C61.7666 16.9639 61.4746 16.9766 61.043 17.002C60.6198 17.0273 60.2135 17.0612 59.8242 17.1035V23.2861C60.1712 23.3031 60.4632 23.32 60.7002 23.3369C60.9456 23.3454 61.1361 23.3496 61.2715 23.3496C62.1432 23.3496 62.9092 23.2607 63.5693 23.083C64.238 22.8968 64.7585 22.5667 65.1309 22.0928C65.5033 21.6188 65.6895 20.9375 65.6895 20.0488ZM81.6764 24.4922H69.5143V23.4893L70.7584 23.4004C71.097 23.375 71.2662 23.2015 71.2662 22.8799V10.4004C71.2662 10.0872 71.097 9.91797 70.7584 9.89258L69.5143 9.80371V8.78809H80.8893V12.2793H79.4801L79.15 10.3623C79.1162 10.0661 78.9765 9.91797 78.7311 9.91797H73.6276V15.7451H77.1696C77.4065 15.7451 77.5462 15.6097 77.5885 15.3389L77.8043 13.7266H78.9977V18.957H77.8043L77.5885 17.332C77.5547 17.0443 77.415 16.9004 77.1696 16.9004H73.6276V23.3496H79.569C79.806 23.3496 79.9498 23.2015 80.0006 22.9053L80.3942 20.582H81.6764V24.4922ZM98.3514 24.4922H92.7782V23.4893L94.1366 23.375C94.2128 23.375 94.2763 23.32 94.327 23.21C94.3778 23.0999 94.3947 23.0195 94.3778 22.9688L92.7655 18.6904H87.3573L85.8085 22.9053C85.8 22.9222 85.7958 22.9434 85.7958 22.9688C85.7958 23.2227 85.91 23.3581 86.1386 23.375L87.5223 23.4893V24.4922H82.8124V23.4893L84.1708 23.1973L89.6171 8.41992H91.3817L96.8026 22.8545C96.8703 23.0322 96.9296 23.1423 96.9804 23.1846C97.0311 23.2354 97.1369 23.2734 97.2977 23.2988L98.3514 23.4893V24.4922ZM92.3466 17.5732L90.0487 11.4414L87.7763 17.5732H92.3466ZM112.407 9.80371L111.061 9.89258C110.74 9.91797 110.579 10.0872 110.579 10.4004V19.2998C110.579 23.0153 108.569 24.873 104.549 24.873C100.749 24.873 98.8486 23.0153 98.8486 19.2998V10.4004C98.8486 10.0872 98.6878 9.91797 98.3662 9.89258L97.122 9.80371V8.78809H103.051V9.80371L101.705 9.89258C101.383 9.91797 101.223 10.0872 101.223 10.4004V18.6904C101.223 20.1969 101.506 21.3438 102.073 22.1309C102.649 22.9095 103.69 23.2988 105.196 23.2988C106.627 23.2988 107.651 22.9095 108.269 22.1309C108.886 21.3522 109.195 20.2054 109.195 18.6904V10.4004C109.195 10.0872 109.022 9.91797 108.675 9.89258L107.342 9.80371V8.78809H112.407V9.80371ZM127.313 12.5332H125.929L125.599 10.3369C125.557 10.0661 125.425 9.93066 125.205 9.93066H121.854V22.8799C121.854 23.2015 122.019 23.375 122.349 23.4004L123.847 23.4893V24.4922H117.499V23.4893L118.997 23.4004C119.327 23.375 119.492 23.2015 119.492 22.8799V9.93066H116.116C115.895 9.93066 115.764 10.0661 115.722 10.3369L115.405 12.5332H114.046V8.78809H127.313V12.5332ZM134.885 24.4922H128.715V23.4893L130.112 23.4004C130.442 23.375 130.607 23.2015 130.607 22.8799V10.4004C130.607 10.1042 130.442 9.94336 130.112 9.91797L128.715 9.81641V8.78809H134.885V9.81641L133.463 9.91797C133.133 9.94336 132.968 10.1042 132.968 10.4004V22.8799C132.968 23.2015 133.133 23.375 133.463 23.4004L134.885 23.4893V24.4922Z" fill="#F20587"/>
<path d="M55.6738 46.4141V45.0371L57.1826 44.9053C57.3486 44.8857 57.4951 44.8271 57.6221 44.7295C57.749 44.6221 57.8125 44.4805 57.8125 44.3047V30.4033C57.8125 30.2275 57.749 30.0859 57.6221 29.9785C57.4951 29.8711 57.3486 29.8125 57.1826 29.8027L55.6738 29.6709V28.2939H63.4229V29.0557L67.2314 40.6133L71.0107 29.0557V28.2939H78.6719V29.6709L77.1338 29.8027C76.9775 29.8125 76.8408 29.8711 76.7236 29.9785C76.6064 30.0859 76.5479 30.2275 76.5479 30.4033V44.3047C76.5479 44.4805 76.6064 44.6221 76.7236 44.7295C76.8408 44.8271 76.9775 44.8857 77.1338 44.9053L78.6719 45.0371V46.4141H70.7617V45.0371L72.0801 44.9053C72.2363 44.8857 72.373 44.8271 72.4902 44.7295C72.6172 44.6221 72.6807 44.4805 72.6807 44.3047V30.1396L67.2607 46.4141H65.1807L59.8633 30.2422V44.3047C59.8633 44.4805 59.9219 44.6221 60.0391 44.7295C60.166 44.8271 60.3076 44.8857 60.4639 44.9053L61.9141 45.0371V46.4141H55.6738ZM97.1119 46.4141H82.4781V45.0371L83.9576 44.9053C84.1236 44.8857 84.2701 44.8271 84.3971 44.7295C84.524 44.6221 84.5875 44.4805 84.5875 44.3047V30.4033C84.5875 30.2275 84.524 30.0908 84.3971 29.9932C84.2701 29.8857 84.1236 29.8223 83.9576 29.8027L82.4781 29.6709V28.2939H96.2477V32.6152H94.2994L93.8746 30.374C93.8453 30.2373 93.7867 30.1201 93.6988 30.0225C93.6109 29.9248 93.5084 29.876 93.3912 29.876H88.3668V36.2041H91.5748C91.7018 36.2041 91.8043 36.1504 91.8824 36.043C91.9703 35.9258 92.0191 35.8184 92.0289 35.7207L92.2779 33.8896H93.9625V40.2324H92.2779L92.0289 38.4014C92.0191 38.2939 91.9703 38.1865 91.8824 38.0791C91.8043 37.9717 91.7018 37.918 91.5748 37.918H88.3668V44.7881H94.2408C94.358 44.7881 94.4654 44.7295 94.5631 44.6123C94.6705 44.4854 94.7291 44.373 94.7389 44.2754L95.149 41.4775H97.1119V46.4141ZM115.654 46.4141H101.021V45.0371L102.5 44.9053C102.666 44.8857 102.813 44.8271 102.94 44.7295C103.067 44.6221 103.13 44.4805 103.13 44.3047V30.4033C103.13 30.2275 103.067 30.0908 102.94 29.9932C102.813 29.8857 102.666 29.8223 102.5 29.8027L101.021 29.6709V28.2939H114.79V32.6152H112.842L112.417 30.374C112.388 30.2373 112.329 30.1201 112.241 30.0225C112.154 29.9248 112.051 29.876 111.934 29.876H106.909V36.2041H110.117C110.244 36.2041 110.347 36.1504 110.425 36.043C110.513 35.9258 110.562 35.8184 110.571 35.7207L110.821 33.8896H112.505V40.2324H110.821L110.571 38.4014C110.562 38.2939 110.513 38.1865 110.425 38.0791C110.347 37.9717 110.244 37.918 110.117 37.918H106.909V44.7881H112.783C112.901 44.7881 113.008 44.7295 113.106 44.6123C113.213 44.4854 113.272 44.373 113.281 44.2754L113.692 41.4775H115.654V46.4141ZM134.871 33.2451H132.893L132.41 30.2422C132.381 30.0273 132.254 29.9199 132.029 29.9199H129.012V44.3047C129.012 44.4805 129.07 44.6221 129.187 44.7295C129.304 44.8271 129.441 44.8857 129.597 44.9053L131.194 45.0371V46.4141H122.962V45.0371L124.529 44.9053C124.695 44.8857 124.837 44.8271 124.954 44.7295C125.081 44.6221 125.144 44.4805 125.144 44.3047V29.9199H122.127C121.883 29.9199 121.746 30.0273 121.717 30.2422L121.233 33.2451H119.3V28.2939H134.871V33.2451Z" fill="#310273"/>
<path d="M26.4355 23.5409C26.955 22.9984 27.3717 22.5943 27.7428 22.168C31.6872 17.6396 29.4667 9.98892 23.4444 9.23052C21.0811 8.93156 15.1844 9.00902 10.3779 9.00902V11.1349H12.9296C12.9296 11.1349 12.9638 19.627 12.901 21.5867C12.8553 23.0537 12.901 22.8268 12.901 24.0447C13.6545 23.8786 14.174 23.8011 15.2072 23.7623C18.147 23.6461 21.5891 24.1831 23.3816 25.3179C27.1091 27.6707 28.8331 30.721 29.2726 34.3305L34.3359 29.7688C32.6748 26.8514 30.0147 24.8252 26.4355 23.5409ZM23.0334 19.0125C22.7137 21.6697 21.9031 22.3064 18.5409 22.3064V11.1072C21.7889 10.9909 22.6737 11.6884 23.0105 14.2516C23.216 15.8182 23.2217 17.4403 23.0334 19.0125Z" fill="#310273"/>
<path d="M5.28027 30.4057L9.42453 34.1148C10.0353 32.382 10.9772 30.7212 12.2502 29.1601C15.6352 25.0192 19.7966 27.2447 19.2829 29.4203C19.066 30.3503 18.1983 31.3468 18.0042 32.2768C17.8387 32.7474 17.7473 33.2512 17.7473 33.7771C17.7473 36.3624 19.9051 38.4549 22.5709 38.4549C22.8449 38.4549 23.1132 38.4273 23.3758 38.383C24.2948 38.3166 25.1739 37.9789 25.9388 37.2592C26.4868 36.7499 26.8522 36.1741 27.0462 35.5652C27.0691 35.4932 27.0862 35.4268 27.1033 35.3548C27.286 34.8621 27.4002 34.3307 27.3887 33.7771C27.2974 27.0952 13.7743 20.524 5.28027 30.4057Z" fill="#310273"/>
<path d="M19.8023 40.8516L0 23.8563C0.245459 25.4008 0.770623 26.89 1.56409 28.2463L2.30616 29.5196L19.8137 46.4983L19.8194 46.4762L37.3155 29.5085L38.0576 28.2352C38.8511 26.8734 39.382 25.3897 39.6217 23.8452L19.8023 40.8516Z" fill="#F20587"/>
</svg>
