<svg width="162" height="39" viewBox="0 0 162 39" fill="none" xmlns="http://www.w3.org/2000/svg">
<path d="M70.1654 11.7492C70.1654 12.888 69.7874 13.8096 69.0315 14.5137C68.2872 15.2092 67.2929 15.7177 66.0485 16.0394C64.8158 16.3523 63.4667 16.5089 62.0014 16.5089H53V15.4787L54.7096 15.3874C55.1515 15.3613 55.3725 15.1831 55.3725 14.8528V2.03428C55.3725 1.71257 55.1515 1.53874 54.7096 1.51266L53 1.42138V0.378171H61.6176C66.4323 0.378171 68.8397 1.66912 68.8397 4.2511C68.8397 6.13759 67.2986 7.37203 64.2168 7.95454C65.8567 7.95454 67.2056 8.2327 68.2639 8.78911C69.5315 9.44978 70.1654 10.4365 70.1654 11.7492ZM65.3856 4.42058C65.3856 2.46456 63.7343 1.48658 60.4314 1.48658C60.164 1.48658 59.8034 1.49962 59.3498 1.5257C59.1289 1.5344 58.9545 1.54309 58.8266 1.55178C58.6986 1.55178 58.6229 1.55178 58.5997 1.55178V7.64156C58.8672 7.65019 59.0999 7.65461 59.2975 7.65461C59.4952 7.65461 59.6463 7.65461 59.751 7.65461C61.7862 7.65461 63.2458 7.37635 64.1296 6.82004C64.9669 6.29844 65.3856 5.49859 65.3856 4.42058ZM66.6591 11.9448C66.6591 9.83229 64.932 8.77606 61.478 8.77606C61.2687 8.77606 60.8675 8.78911 60.2744 8.8152C59.6929 8.84119 59.1346 8.87601 58.5997 8.91946V15.27C59.0765 15.2875 59.4777 15.3048 59.8034 15.3222C60.1406 15.3309 60.4024 15.3352 60.5884 15.3352C61.7862 15.3352 62.8388 15.2439 63.7458 15.0614C64.6647 14.8701 65.3799 14.5311 65.8916 14.0443C66.4033 13.5574 66.6591 12.8576 66.6591 11.9448ZM88.6266 16.5089H71.9148V15.4787L73.6243 15.3874C74.0895 15.3613 74.322 15.1831 74.322 14.8528V2.03428C74.322 1.71257 74.0895 1.53874 73.6243 1.51266L71.9148 1.42138V0.378171H87.545V3.96421H85.6087L85.1551 1.99514C85.1086 1.6909 84.9167 1.53874 84.5795 1.53874H77.5668V7.52416H82.4338C82.7594 7.52416 82.9513 7.38508 83.0094 7.10692L83.306 5.45083H84.9458V10.8233H83.306L83.0094 9.15416C82.963 8.85865 82.771 8.71084 82.4338 8.71084H77.5668V15.3352H85.7308C86.0565 15.3352 86.2541 15.1831 86.3239 14.8789L86.8647 12.4924H88.6266V16.5089ZM111.54 16.5089H103.881V15.4787L105.748 15.3613C105.853 15.3613 105.94 15.3048 106.01 15.1918C106.079 15.0787 106.103 14.9962 106.079 14.9441L103.864 10.5495H96.4327L94.3045 14.8789C94.2928 14.8962 94.287 14.918 94.287 14.9441C94.287 15.2049 94.4439 15.344 94.7581 15.3613L96.6594 15.4787V16.5089H90.1876V15.4787L92.0541 15.1788L99.5378 0H101.963L109.411 14.8267C109.504 15.0092 109.586 15.1223 109.656 15.1657C109.725 15.2179 109.871 15.2569 110.092 15.283L111.54 15.4787V16.5089ZM103.288 9.40191L100.131 3.10355L97.0084 9.40191H103.288ZM130.853 1.42138L129.004 1.51266C128.563 1.53874 128.341 1.71257 128.341 2.03428V11.1754C128.341 14.9918 125.579 16.9 120.056 16.9C114.834 16.9 112.223 14.9918 112.223 11.1754V2.03428C112.223 1.71257 112.002 1.53874 111.56 1.51266L109.85 1.42138V0.378171H117.997V1.42138L116.148 1.51266C115.705 1.53874 115.485 1.71257 115.485 2.03428V10.5495C115.485 12.0969 115.874 13.2749 116.653 14.0834C117.445 14.8832 118.875 15.283 120.945 15.283C122.911 15.283 124.318 14.8832 125.167 14.0834C126.015 13.2836 126.44 12.1056 126.44 10.5495V2.03428C126.44 1.71257 126.202 1.53874 125.725 1.51266L123.893 1.42138V0.378171H130.853V1.42138ZM151.335 4.22501H149.434L148.98 1.96905C148.922 1.6909 148.741 1.55178 148.439 1.55178H143.834V14.8528C143.834 15.1831 144.061 15.3613 144.514 15.3874L146.573 15.4787V16.5089H137.85V15.4787L139.908 15.3874C140.362 15.3613 140.589 15.1831 140.589 14.8528V1.55178H135.95C135.646 1.55178 135.466 1.6909 135.408 1.96905L134.973 4.22501H133.105V0.378171H151.335V4.22501ZM161.74 16.5089H153.262V15.4787L155.181 15.3874C155.635 15.3613 155.862 15.1831 155.862 14.8528V2.03428C155.862 1.73003 155.635 1.56482 155.181 1.53874L153.262 1.43442V0.378171H161.74V1.43442L159.786 1.53874C159.333 1.56482 159.106 1.73003 159.106 2.03428V14.8528C159.106 15.1831 159.333 15.3613 159.786 15.3874L161.74 15.4787V16.5089Z" fill="#F20587"/>
<path d="M53 36.88V35.5213L55.0716 35.3912C55.2995 35.3719 55.5007 35.314 55.6751 35.2177C55.8493 35.1118 55.9365 34.972 55.9365 34.7986V21.0814C55.9365 20.908 55.8493 20.7682 55.6751 20.6623C55.5007 20.5563 55.2995 20.4985 55.0716 20.4888L53 20.3587V19H63.6397V19.7517L68.8689 31.1561L74.058 19.7517V19H84.577V20.3587L82.4652 20.4888C82.2506 20.4985 82.0629 20.5563 81.902 20.6623C81.7411 20.7682 81.6607 20.908 81.6607 21.0814V34.7986C81.6607 34.972 81.7411 35.1118 81.902 35.2177C82.0629 35.314 82.2506 35.3719 82.4652 35.3912L84.577 35.5213V36.88H73.7161V35.5213L75.5263 35.3912C75.7408 35.3719 75.9285 35.314 76.0894 35.2177C76.2638 35.1118 76.351 34.972 76.351 34.7986V20.8212L68.9091 36.88H66.0532L58.7523 20.9225V34.7986C58.7523 34.972 58.8328 35.1118 58.9937 35.2177C59.1679 35.314 59.3623 35.3719 59.5769 35.3912L61.5681 35.5213V36.88H53ZM109.896 36.88H89.8031V35.5213L91.8345 35.3912C92.0624 35.3719 92.2635 35.314 92.4379 35.2177C92.6121 35.1118 92.6993 34.972 92.6993 34.7986V21.0814C92.6993 20.908 92.6121 20.7731 92.4379 20.6768C92.2635 20.5707 92.0624 20.5081 91.8345 20.4888L89.8031 20.3587V19H108.709V23.264H106.034L105.451 21.0525C105.411 20.9176 105.33 20.802 105.209 20.7057C105.089 20.6093 104.948 20.5611 104.787 20.5611H97.8884V26.8053H102.293C102.467 26.8053 102.608 26.7524 102.715 26.6464C102.836 26.5307 102.903 26.4248 102.917 26.3283L103.258 24.5215H105.571V30.7802H103.258L102.917 28.9735C102.903 28.8674 102.836 28.7615 102.715 28.6555C102.608 28.5495 102.467 28.4965 102.293 28.4965H97.8884V35.2756H105.954C106.114 35.2756 106.262 35.2177 106.396 35.1021C106.544 34.9769 106.624 34.866 106.637 34.7696L107.201 32.0088H109.896V36.88ZM135.355 36.88H115.263V35.5213L117.294 35.3912C117.522 35.3719 117.723 35.314 117.898 35.2177C118.072 35.1118 118.159 34.972 118.159 34.7986V21.0814C118.159 20.908 118.072 20.7731 117.898 20.6768C117.723 20.5707 117.522 20.5081 117.294 20.4888L115.263 20.3587V19H134.168V23.264H131.494L130.91 21.0525C130.87 20.9176 130.789 20.802 130.668 20.7057C130.549 20.6093 130.407 20.5611 130.247 20.5611H123.347V26.8053H127.752C127.926 26.8053 128.068 26.7524 128.175 26.6464C128.296 26.5307 128.363 26.4248 128.375 26.3283L128.719 24.5215H131.031V30.7802H128.719L128.375 28.9735C128.363 28.8674 128.296 28.7615 128.175 28.6555C128.068 28.5495 127.926 28.4965 127.752 28.4965H123.347V35.2756H131.413C131.575 35.2756 131.721 35.2177 131.856 35.1021C132.003 34.9769 132.084 34.866 132.096 34.7696L132.661 32.0088H135.355V36.88ZM161.74 23.8856H159.024L158.361 20.9225C158.321 20.7104 158.147 20.6044 157.838 20.6044H153.695V34.7986C153.695 34.972 153.775 35.1118 153.936 35.2177C154.096 35.314 154.284 35.3719 154.499 35.3912L156.691 35.5213V36.88H145.389V35.5213L147.54 35.3912C147.768 35.3719 147.963 35.314 148.124 35.2177C148.298 35.1118 148.385 34.972 148.385 34.7986V20.6044H144.242C143.907 20.6044 143.719 20.7104 143.679 20.9225L143.015 23.8856H140.361V19H161.74V23.8856Z" fill="#310273"/>
<path d="M26.4354 15.5409C26.9549 14.9984 27.3716 14.5943 27.7426 14.168C31.6871 9.63959 29.4666 1.98891 23.4442 1.23048C21.081 0.931543 15.1842 1.00903 10.3778 1.00903V3.13485H12.9294C12.9294 3.13485 12.9637 11.627 12.9009 13.5867C12.8552 15.0537 12.9009 14.8268 12.9009 16.0447C13.6544 15.8786 14.1739 15.8011 15.2071 15.7623C18.1469 15.6461 21.589 16.1831 23.3815 17.3179C27.109 19.6707 28.8329 22.721 29.2725 26.3305L34.3358 21.7688C32.6747 18.8514 30.0146 16.8252 26.4354 15.5409ZM23.0332 11.0125C22.7136 13.6697 21.903 14.3064 18.5408 14.3064V3.10716C21.7888 2.99091 22.6736 3.68843 23.0104 6.25158C23.2159 7.81825 23.2216 9.44028 23.0332 11.0125Z" fill="#310273"/>
<path d="M5.28021 22.4055L9.42447 26.1146C10.0353 24.3818 10.9772 22.721 12.2501 21.1599C15.6352 17.019 19.7966 19.2445 19.2828 21.4201C19.0659 22.3501 18.1982 23.3466 18.0041 24.2766C17.8386 24.7472 17.7473 25.251 17.7473 25.7769C17.7473 28.3622 19.905 30.4547 22.5708 30.4547C22.8448 30.4547 23.1131 30.4271 23.3757 30.3828C24.2947 30.3164 25.1738 29.9787 25.9388 29.259C26.4868 28.7497 26.8521 28.1739 27.0462 27.565C27.069 27.493 27.0861 27.4266 27.1033 27.3546C27.2859 26.8619 27.4001 26.3305 27.3887 25.7769C27.2973 19.095 13.7743 12.5238 5.28021 22.4055Z" fill="#310273"/>
<path d="M19.8023 32.8518L0 15.8564C0.245459 17.401 0.770623 18.8901 1.56409 20.2465L2.30616 21.5197L19.8137 38.4985L19.8194 38.4763L37.3155 21.5087L38.0576 20.2354C38.8511 18.8735 39.382 17.3899 39.6217 15.8454L19.8023 32.8518Z" fill="#F20587"/>
</svg>
